<svg width="16" height="17" viewBox="0 0 16 17" fill="none" xmlns="http://www.w3.org/2000/svg">
<g id="ep:upload-filled">
<path id="Vector" d="M8.5 14V11H10.5L8 8L5.5 11H7.5V14H5V13.975C4.916 13.98 4.836 14 4.75 14C3.75544 14 2.80161 13.6049 2.09835 12.9017C1.39509 12.1984 1 11.2446 1 10.25C1 8.326 2.455 6.758 4.322 6.543C4.48569 5.6873 4.94245 4.91538 5.61371 4.36001C6.28497 3.80464 7.12878 3.50053 8 3.5C8.87134 3.50048 9.71529 3.80454 10.3867 4.3599C11.0582 4.91526 11.5151 5.68721 11.679 6.543C13.546 6.758 14.999 8.326 14.999 10.25C14.999 11.2446 14.6039 12.1984 13.9007 12.9017C13.1974 13.6049 12.2436 14 11.249 14C11.165 14 11.084 13.98 10.999 13.975V14H8.5Z" fill="#2962FF"/>
</g>
</svg>
